<?xml version="1.0" encoding="UTF-8"?>
<svg xmlns="http://www.w3.org/2000/svg" xmlns:xlink="http://www.w3.org/1999/xlink" width="375pt" height="374.999991pt" viewBox="0 0 375 374.999991" version="1.2">
<defs>
<clipPath id="clip1">
  <path d="M 98.542969 48.925781 L 276.078125 48.925781 L 276.078125 306.898438 L 98.542969 306.898438 Z M 98.542969 48.925781 "/>
</clipPath>
<clipPath id="clip2">
  <path d="M 98.542969 48.925781 L 276.078125 48.925781 L 276.078125 306.898438 L 98.542969 306.898438 Z M 98.542969 48.925781 "/>
</clipPath>
</defs>
<g id="surface1">
<path style=" stroke:none;fill-rule:nonzero;fill:rgb(97.24884%,56.079102%,56.079102%);fill-opacity:1;" d="M 63.339844 116.875 C 63.339844 116.875 33.039062 176.867188 51.007812 206.96875 C 68.972656 237.074219 87.6875 293.339844 137.121094 302.59375 C 186.558594 311.847656 269.800781 285.363281 295.742188 259.195312 C 321.683594 233.03125 350.070312 154.851562 295 90.496094 C 239.925781 26.144531 162.425781 17.847656 63.339844 116.875 Z M 63.339844 116.875 "/>
<g clip-path="url(#clip1)" clip-rule="nonzero">
<path style=" stroke:none;fill-rule:nonzero;fill:rgb(5.879211%,5.488586%,4.708862%);fill-opacity:1;" d="M 276.046875 273.585938 C 274.097656 264.988281 268.886719 258.316406 264.859375 254.234375 C 262.003906 251.332031 258.894531 248.800781 255.710938 246.507812 C 254.9375 245.953125 254.152344 245.417969 253.378906 244.886719 C 251.585938 243.671875 249.78125 242.519531 248.003906 241.414062 C 248.070312 240.921875 248.117188 240.433594 248.164062 239.953125 C 248.445312 236.886719 248.296875 234.089844 247.71875 231.507812 C 247.441406 230.261719 247.066406 229.070312 246.578125 227.921875 C 244.324219 222.558594 239.871094 218.476562 235.796875 215.195312 C 231.324219 211.578125 226.5625 208.238281 221.625 205.261719 C 221.433594 201.277344 221.496094 197.269531 221.808594 193.328125 C 222.5 193.097656 223.285156 192.527344 224.09375 191.367188 C 231.898438 179.964844 240.753906 167.035156 246.539062 152.742188 C 250.96875 141.816406 255.390625 125.253906 251.316406 108.414062 C 248.683594 97.558594 242.378906 87.753906 233.996094 81.441406 C 230.128906 68.378906 218.820312 56.867188 205.058594 52.039062 C 189.890625 46.726562 171.734375 48.246094 153.949219 56.316406 C 145.648438 60.085938 140.03125 64.214844 136.277344 69.3125 C 135.644531 70.171875 135.066406 71.066406 134.570312 71.972656 C 128.78125 74.902344 124.351562 80.222656 122.683594 86.300781 C 121.234375 91.585938 121.859375 97.492188 124.390625 102.589844 C 121.972656 111.652344 120.855469 121.695312 121.070312 132.453125 C 121.40625 149.007812 124.699219 165.414062 127.882812 181.28125 C 129.058594 187.121094 130.386719 193.738281 134.300781 198.980469 C 138.496094 204.601562 145.476562 208.109375 153.648438 208.765625 C 151.960938 212.339844 149.652344 215.601562 147.230469 219.03125 C 144.578125 222.789062 141.835938 226.671875 139.996094 231.019531 C 137.726562 236.371094 136.785156 242.542969 137.179688 249.375 C 134.652344 251.976562 131.171875 254.253906 126.558594 256.320312 C 124.710938 257.148438 122.777344 257.925781 120.90625 258.667969 C 116.898438 260.265625 112.761719 261.910156 109.023438 264.296875 C 103.457031 267.855469 99.648438 272.847656 98.570312 277.996094 C 98.480469 278.425781 98.617188 278.875 98.933594 279.183594 C 115.25 295.230469 125.519531 300.195312 133.414062 302.949219 C 142.03125 305.949219 151.042969 306.898438 159.5 306.898438 C 165.667969 306.898438 171.546875 306.394531 176.746094 305.804688 C 180.484375 305.382812 184.230469 304.871094 187.988281 304.269531 C 189.347656 304.054688 190.710938 303.828125 192.082031 303.582031 C 219.628906 298.730469 247.570312 289.152344 275.378906 275.023438 C 275.902344 274.753906 276.175781 274.164062 276.046875 273.585938 "/>
</g>
<path style=" stroke:none;fill-rule:nonzero;fill:rgb(100%,100%,100%);fill-opacity:1;" d="M 136.046875 120.925781 C 139.203125 121.867188 141.523438 123.726562 142.59375 122.445312 C 144.238281 126.039062 147.230469 129.171875 147.914062 133.101562 C 148.832031 138.394531 145.171875 143.945312 143.109375 148.589844 C 141.429688 152.375 137.957031 157.34375 139.125 161.667969 C 140.175781 165.5625 143.769531 167.800781 147.003906 169.730469 C 148.421875 170.574219 150.460938 168.398438 148.722656 167.410156 C 146.613281 166.214844 144.289062 164.945312 142.921875 162.859375 C 141.429688 160.582031 141.757812 158.5 142.757812 156.125 C 144.773438 151.332031 146.992188 146.628906 148.964844 141.820312 C 150.425781 138.25 151.3125 134.667969 149.761719 130.964844 C 148.324219 127.519531 145.554688 124.847656 143.511719 121.757812 C 143.375 121.550781 143.242188 121.34375 143.113281 121.132812 C 143.503906 118.585938 141.269531 115.84375 137.863281 114.828125 C 134.234375 113.742188 130.640625 115.03125 129.847656 117.703125 C 129.046875 120.378906 132.417969 119.835938 136.046875 120.925781 Z M 146.886719 176.390625 C 146.339844 176.191406 145.289062 176.847656 145.898438 177.425781 C 153.914062 185.015625 168.945312 180.925781 173.792969 171.675781 C 174.613281 170.125 171.90625 169.953125 171.160156 170.835938 C 168.453125 173.992188 165.394531 176.65625 161.339844 177.882812 C 156.316406 179.414062 151.632812 178.128906 146.886719 176.390625 Z M 178.199219 121.417969 C 182.617188 122.734375 185.695312 125.53125 186.660156 122.28125 C 187.628906 119.027344 184.828125 115.320312 180.414062 113.996094 C 175.996094 112.675781 171.628906 114.246094 170.65625 117.496094 C 169.691406 120.75 173.785156 120.09375 178.199219 121.417969 Z M 181.222656 128.53125 C 181.222656 127.207031 180.132812 126.117188 178.808594 126.117188 L 178.792969 126.117188 C 177.464844 126.117188 176.382812 127.207031 176.382812 128.53125 L 176.382812 139.367188 C 176.382812 140.699219 177.464844 141.789062 178.792969 141.789062 L 178.808594 141.789062 C 180.132812 141.789062 181.222656 140.699219 181.222656 139.367188 Z M 167.316406 185.6875 C 166.015625 186.347656 164.609375 186.925781 163.167969 187.179688 C 161.527344 187.46875 159.960938 187.160156 158.320312 187.085938 C 157.816406 187.066406 156.878906 187.699219 157.5 188.234375 C 160.511719 190.835938 165.886719 189.765625 168.59375 187.25 C 169.578125 186.328125 168.445312 185.113281 167.316406 185.6875 Z M 138.867188 128.015625 C 138.867188 126.683594 137.78125 125.59375 136.449219 125.59375 L 136.433594 125.59375 C 135.109375 125.59375 134.023438 126.683594 134.023438 128.015625 L 134.023438 138.851562 C 134.023438 140.175781 135.109375 141.265625 136.433594 141.265625 L 136.449219 141.265625 C 137.78125 141.265625 138.867188 140.175781 138.867188 138.851562 Z M 219.199219 145.859375 C 220 148.082031 222.375 147.816406 224.050781 146.859375 C 224.8125 146.421875 225.558594 145.542969 226.578125 146.125 C 228.042969 146.96875 227.140625 149.664062 226.65625 150.757812 C 225.753906 152.796875 224.082031 154.199219 222.226562 155.34375 C 220.847656 156.191406 222.535156 157.433594 223.625 157.011719 C 226.699219 155.824219 229.007812 153.128906 229.847656 149.949219 C 230.519531 147.382812 229.835938 144.050781 226.746094 143.613281 C 225.421875 143.421875 224.390625 144 223.300781 144.648438 C 222.550781 145.105469 222.171875 145.859375 221.621094 144.753906 C 221.1875 143.90625 222.136719 141.929688 222.40625 141.183594 C 223.121094 139.257812 224.105469 137.414062 225.300781 135.746094 C 226.390625 134.21875 227.84375 132.996094 228.84375 131.410156 C 229.0625 131.042969 228.539062 130.734375 228.21875 130.863281 C 225.523438 131.992188 223.488281 134.578125 221.96875 137.007812 C 220.617188 139.160156 218.242188 143.167969 219.199219 145.859375 Z M 123.652344 132.402344 C 123.4375 121.703125 124.566406 111.734375 127.011719 102.785156 C 128.375 97.753906 130.179688 93.011719 132.371094 88.636719 L 132.371094 88.632812 C 132.640625 88.097656 132.914062 87.578125 133.191406 87.0625 C 133.679688 87.800781 134.164062 88.476562 134.554688 89.054688 C 134.921875 89.59375 135.304688 90.125 135.707031 90.640625 C 137.175781 92.542969 138.894531 94.265625 140.902344 95.585938 C 147.273438 99.789062 154.949219 98.507812 161.917969 96.75 C 173.050781 93.941406 184.125 90.46875 194.789062 86.085938 C 193.796875 95.183594 194.636719 105.332031 200.597656 112.359375 C 204.464844 116.914062 209.351562 120.035156 211.449219 125.90625 C 213.464844 131.546875 213.4375 137.667969 213.355469 143.589844 C 213.335938 145.371094 215.988281 145.050781 216.542969 143.773438 C 218.148438 139.992188 219.742188 136.207031 221.355469 132.433594 C 222.503906 129.722656 223.839844 125.71875 227.046875 124.917969 C 230.472656 124.066406 233.53125 127.472656 234.976562 130.191406 C 236.617188 133.285156 237.25 136.957031 237.167969 140.425781 C 236.878906 151.769531 229.472656 159.976562 220.183594 165.050781 C 219.308594 165.539062 218.414062 165.988281 217.503906 166.410156 C 215.851562 167.191406 214.140625 167.875 212.429688 168.464844 C 210.980469 168.960938 211.867188 170.820312 213.238281 170.464844 C 214.515625 170.128906 215.792969 169.726562 217.046875 169.265625 C 216.082031 176.335938 216.4375 183.609375 218.113281 190.53125 C 218.230469 191.007812 218.488281 192.078125 219.273438 192.792969 C 218.90625 197.183594 218.851562 201.648438 219.097656 206.089844 C 219.179688 207.667969 219.308594 209.238281 219.484375 210.800781 C 219.550781 211.476562 219.625 212.148438 219.714844 212.8125 C 220.5 219.023438 221.886719 225.101562 223.867188 230.984375 C 223.019531 231.734375 222.164062 232.441406 221.425781 233.128906 C 218.628906 235.71875 215.886719 238.382812 213.226562 241.121094 C 202.78125 251.8125 193.457031 263.59375 185.382812 276.175781 C 182.125 281.261719 179.007812 286.480469 176.175781 291.839844 C 175.589844 290.472656 174.957031 289.125 174.359375 287.796875 C 172.683594 284.132812 170.878906 280.53125 169.039062 276.949219 C 165.320312 269.671875 161.488281 262.40625 158.816406 254.660156 C 158.558594 253.917969 158.308594 253.175781 158.078125 252.425781 C 160.480469 251.847656 162.917969 250.773438 164.0625 249.039062 C 165.082031 247.492188 165.09375 245.417969 165.28125 243.648438 C 165.585938 240.804688 165.789062 237.949219 165.890625 235.09375 C 166.09375 229.554688 165.964844 224.003906 165.667969 218.460938 C 165.53125 215.839844 165.355469 213.214844 165.164062 210.59375 C 165.09375 209.710938 165.070312 208.773438 165.027344 207.835938 C 175.824219 205.1875 185.21875 198.378906 193.503906 192.378906 C 194.085938 191.960938 194.214844 191.15625 193.796875 190.578125 C 193.375 190 192.574219 189.871094 191.992188 190.289062 C 183.996094 196.078125 174.945312 202.636719 164.796875 205.234375 C 164.625 205.277344 164.464844 205.320312 164.289062 205.363281 C 163.511719 205.550781 162.714844 205.710938 161.917969 205.839844 C 160.421875 206.09375 158.914062 206.238281 157.398438 206.277344 C 156.800781 206.296875 156.203125 206.296875 155.605469 206.28125 L 155.546875 206.28125 C 155.269531 206.269531 154.984375 206.261719 154.703125 206.238281 C 146.90625 205.832031 140.257812 202.644531 136.371094 197.433594 C 132.804688 192.660156 131.535156 186.34375 130.417969 180.769531 C 127.253906 165.015625 123.980469 148.722656 123.652344 132.402344 Z M 224.695312 271.0625 C 224.914062 270.90625 224.585938 270.679688 224.398438 270.78125 C 215.953125 275.734375 208.320312 281.3125 201.398438 288.277344 C 198.179688 291.511719 195.148438 294.917969 192.316406 298.492188 C 191.578125 299.417969 190.851562 300.351562 190.140625 301.296875 C 185.566406 302.074219 181.011719 302.722656 176.464844 303.238281 C 158.53125 305.265625 145.507812 304.425781 134.261719 300.507812 C 120.964844 295.878906 110.53125 286.921875 101.253906 277.847656 C 102.375 273.613281 105.675781 269.496094 110.410156 266.476562 C 113.945312 264.21875 117.96875 262.617188 121.859375 261.070312 C 123.753906 260.308594 125.714844 259.53125 127.617188 258.679688 C 131.660156 256.867188 134.90625 254.882812 137.460938 252.652344 C 137.542969 253.363281 137.640625 254.089844 137.753906 254.816406 C 138.976562 262.722656 141.632812 270.296875 144.203125 277.621094 C 144.203125 277.625 144.203125 277.628906 144.207031 277.628906 C 145.59375 282.914062 147.398438 288.128906 149.253906 293.171875 C 149.433594 293.660156 150.496094 293.492188 150.378906 292.941406 C 149.371094 287.75 148.21875 282.453125 146.699219 277.300781 C 146.71875 277.125 146.699219 276.9375 146.636719 276.761719 C 146.203125 275.519531 145.761719 274.269531 145.328125 273.007812 C 143.242188 266.972656 141.28125 260.769531 140.300781 254.421875 C 140.066406 252.871094 139.890625 251.335938 139.789062 249.859375 C 139.789062 249.828125 139.785156 249.800781 139.785156 249.769531 L 139.785156 249.765625 C 139.332031 243.113281 140.199219 237.152344 142.367188 232.027344 C 144.101562 227.9375 146.765625 224.167969 149.335938 220.523438 C 151.9375 216.855469 154.605469 213.078125 156.425781 208.871094 L 156.492188 208.871094 C 158.378906 208.871094 160.265625 208.722656 162.136719 208.417969 C 162.164062 208.699219 162.1875 208.972656 162.210938 209.246094 C 162.261719 209.976562 162.316406 210.710938 162.363281 211.449219 C 151.152344 220.960938 150.917969 238.539062 154.605469 251.621094 C 154.621094 251.703125 154.644531 251.785156 154.667969 251.867188 C 154.773438 252.21875 154.875 252.566406 154.984375 252.914062 C 157.359375 260.78125 161.003906 268.199219 164.695312 275.519531 C 166.753906 279.609375 168.851562 283.675781 170.761719 287.839844 C 171.964844 290.488281 172.949219 293.261719 174.054688 295.96875 C 173.65625 296.753906 173.28125 297.546875 172.90625 298.335938 C 172.1875 299.835938 174.496094 300.179688 175.519531 299.277344 C 175.648438 299.164062 175.75 299.03125 175.820312 298.878906 C 176.398438 297.757812 176.972656 296.648438 177.570312 295.539062 C 184.539062 282.3125 192.433594 269.734375 201.8125 258.03125 C 206.957031 251.609375 212.460938 245.453125 218.277344 239.632812 C 220.382812 237.53125 222.574219 235.527344 224.738281 233.484375 C 225.382812 232.878906 226.019531 232.269531 226.652344 231.652344 C 226.699219 231.609375 226.734375 231.566406 226.78125 231.527344 C 228.792969 229.558594 230.832031 227.21875 231.21875 224.3125 C 232.011719 218.359375 227.035156 215.292969 222.269531 212.484375 C 222.089844 211.132812 221.953125 209.78125 221.847656 208.421875 C 226.132812 211.089844 230.265625 214.035156 234.183594 217.207031 C 237.996094 220.285156 242.171875 224.089844 244.207031 228.925781 C 245.5 232.015625 245.964844 235.523438 245.613281 239.585938 C 245.21875 240.800781 244.757812 242.003906 244.207031 243.1875 C 242.578125 246.664062 239.945312 249.257812 238.039062 252.496094 C 237.699219 253.058594 238.5625 253.289062 238.941406 253.085938 C 242.417969 251.1875 244.996094 247.171875 246.679688 243.636719 C 248.21875 244.585938 249.761719 245.566406 251.292969 246.59375 C 246.984375 250.328125 243.25 254.914062 240.304688 259.320312 C 237.660156 263.269531 235.410156 267.53125 233.703125 271.964844 C 232.269531 275.71875 230.140625 280.925781 231.007812 284.984375 C 231.0625 285.238281 231.449219 285.3125 231.59375 285.082031 C 232.71875 283.164062 233.171875 280.882812 233.851562 278.78125 C 234.542969 276.664062 235.296875 274.578125 236.160156 272.523438 C 237.941406 268.277344 240.121094 264.238281 242.742188 260.449219 C 245.265625 256.800781 248.097656 253.394531 251.292969 250.3125 C 252.058594 249.578125 252.839844 248.882812 253.640625 248.199219 C 256.917969 250.523438 260.117188 253.089844 263.023438 256.046875 C 266.664062 259.730469 271.316406 265.644531 273.296875 273.183594 C 246.894531 286.507812 220.371094 295.6875 194.210938 300.574219 C 197.144531 296.769531 200.285156 293.132812 203.597656 289.660156 C 210.015625 282.945312 217.164062 276.5 224.695312 271.0625 "/>
<g clip-path="url(#clip2)" clip-rule="nonzero">
<path style=" stroke:none;fill-rule:nonzero;fill:rgb(5.879211%,5.488586%,4.708862%);fill-opacity:1;" d="M 138.867188 128.015625 L 138.867188 138.851562 C 138.867188 140.175781 137.78125 141.265625 136.449219 141.265625 L 136.433594 141.265625 C 135.109375 141.265625 134.023438 140.175781 134.023438 138.851562 L 134.023438 128.015625 C 134.023438 126.683594 135.109375 125.59375 136.433594 125.59375 L 136.449219 125.59375 C 137.78125 125.59375 138.867188 126.683594 138.867188 128.015625 Z M 147.003906 169.730469 C 143.769531 167.800781 140.175781 165.5625 139.125 161.667969 C 137.957031 157.34375 141.429688 152.375 143.109375 148.589844 C 145.171875 143.945312 148.832031 138.394531 147.914062 133.101562 C 147.230469 129.171875 144.238281 126.039062 142.59375 122.445312 C 141.523438 123.726562 139.203125 121.867188 136.046875 120.925781 C 132.417969 119.835938 129.046875 120.378906 129.847656 117.703125 C 130.640625 115.03125 134.234375 113.742188 137.863281 114.828125 C 141.269531 115.84375 143.503906 118.585938 143.113281 121.132812 C 143.242188 121.34375 143.375 121.550781 143.511719 121.757812 C 145.554688 124.847656 148.324219 127.519531 149.761719 130.964844 C 151.3125 134.667969 150.425781 138.25 148.964844 141.820312 C 146.992188 146.628906 144.773438 151.332031 142.757812 156.125 C 141.757812 158.5 141.429688 160.582031 142.921875 162.859375 C 144.289062 164.945312 146.613281 166.214844 148.722656 167.410156 C 150.460938 168.398438 148.421875 170.574219 147.003906 169.730469 Z M 168.59375 187.25 C 165.886719 189.765625 160.511719 190.835938 157.5 188.234375 C 156.878906 187.699219 157.816406 187.066406 158.320312 187.085938 C 159.960938 187.160156 161.527344 187.46875 163.167969 187.179688 C 164.609375 186.925781 166.015625 186.347656 167.316406 185.6875 C 168.445312 185.113281 169.578125 186.328125 168.59375 187.25 Z M 145.898438 177.425781 C 145.289062 176.847656 146.339844 176.191406 146.886719 176.390625 C 151.632812 178.128906 156.316406 179.414062 161.339844 177.882812 C 165.394531 176.65625 168.453125 173.992188 171.160156 170.835938 C 171.90625 169.953125 174.613281 170.125 173.792969 171.675781 C 168.945312 180.925781 153.914062 185.015625 145.898438 177.425781 Z M 181.222656 128.53125 L 181.222656 139.367188 C 181.222656 140.699219 180.132812 141.789062 178.808594 141.789062 L 178.792969 141.789062 C 177.464844 141.789062 176.382812 140.699219 176.382812 139.367188 L 176.382812 128.53125 C 176.382812 127.207031 177.464844 126.117188 178.792969 126.117188 L 178.808594 126.117188 C 180.132812 126.117188 181.222656 127.207031 181.222656 128.53125 Z M 170.65625 117.496094 C 171.628906 114.246094 175.996094 112.675781 180.414062 113.996094 C 184.828125 115.320312 187.628906 119.027344 186.660156 122.28125 C 185.695312 125.53125 182.617188 122.734375 178.199219 121.417969 C 173.785156 120.09375 169.691406 120.75 170.65625 117.496094 Z M 219.195312 145.859375 C 218.238281 143.167969 220.613281 139.160156 221.964844 137.007812 C 223.484375 134.578125 225.519531 131.992188 228.21875 130.863281 C 228.535156 130.734375 229.0625 131.042969 228.839844 131.410156 C 227.839844 132.996094 226.386719 134.21875 225.300781 135.746094 C 224.105469 137.414062 223.121094 139.257812 222.402344 141.183594 C 222.136719 141.929688 221.1875 143.90625 221.621094 144.753906 C 222.171875 145.859375 222.546875 145.105469 223.300781 144.648438 C 224.386719 144 225.417969 143.421875 226.742188 143.613281 C 229.835938 144.050781 230.515625 147.382812 229.847656 149.949219 C 229.003906 153.128906 226.695312 155.824219 223.625 157.011719 C 222.53125 157.433594 220.847656 156.191406 222.222656 155.34375 C 224.078125 154.199219 225.753906 152.796875 226.65625 150.757812 C 227.140625 149.664062 228.042969 146.96875 226.578125 146.125 C 225.558594 145.542969 224.808594 146.421875 224.046875 146.859375 C 222.371094 147.816406 219.996094 148.082031 219.195312 145.859375 Z M 194.210938 300.574219 C 197.140625 296.769531 200.28125 293.132812 203.59375 289.660156 C 210.011719 282.945312 217.160156 276.5 224.691406 271.0625 C 224.914062 270.90625 224.582031 270.679688 224.398438 270.78125 C 215.949219 275.734375 208.316406 281.3125 201.394531 288.277344 C 198.179688 291.511719 195.148438 294.917969 192.3125 298.492188 C 191.574219 299.417969 190.847656 300.351562 190.136719 301.296875 C 185.566406 302.074219 181.011719 302.722656 176.464844 303.238281 C 158.527344 305.265625 145.503906 304.425781 134.257812 300.507812 C 120.960938 295.878906 110.527344 286.921875 101.25 277.847656 C 102.375 273.613281 105.675781 269.496094 110.410156 266.476562 C 113.941406 264.21875 117.964844 262.617188 121.859375 261.070312 C 123.75 260.308594 125.714844 259.53125 127.617188 258.679688 C 131.65625 256.867188 134.902344 254.882812 137.460938 252.652344 C 137.542969 253.363281 137.640625 254.089844 137.753906 254.816406 C 138.976562 262.722656 141.628906 270.296875 144.203125 277.621094 C 144.203125 277.625 144.203125 277.628906 144.207031 277.628906 C 145.59375 282.914062 147.398438 288.128906 149.253906 293.171875 C 149.433594 293.660156 150.492188 293.492188 150.378906 292.941406 C 149.371094 287.75 148.214844 282.453125 146.695312 277.300781 C 146.714844 277.125 146.695312 276.9375 146.632812 276.761719 C 146.203125 275.519531 145.757812 274.269531 145.324219 273.007812 C 143.242188 266.972656 141.277344 260.769531 140.300781 254.421875 C 140.0625 252.871094 139.886719 251.335938 139.789062 249.859375 C 139.789062 249.828125 139.785156 249.800781 139.785156 249.769531 L 139.785156 249.765625 C 139.332031 243.113281 140.195312 237.152344 142.367188 232.027344 C 144.097656 227.9375 146.761719 224.167969 149.335938 220.523438 C 151.933594 216.855469 154.605469 213.078125 156.425781 208.871094 L 156.492188 208.871094 C 158.378906 208.871094 160.265625 208.722656 162.136719 208.417969 C 162.160156 208.699219 162.1875 208.972656 162.207031 209.246094 C 162.257812 209.976562 162.316406 210.710938 162.363281 211.449219 C 151.152344 220.960938 150.914062 238.539062 154.605469 251.621094 C 154.621094 251.703125 154.640625 251.785156 154.667969 251.867188 C 154.769531 252.21875 154.875 252.566406 154.980469 252.914062 C 157.359375 260.78125 161 268.199219 164.691406 275.519531 C 166.753906 279.609375 168.851562 283.675781 170.757812 287.839844 C 171.964844 290.488281 172.949219 293.261719 174.050781 295.96875 C 173.65625 296.753906 173.277344 297.546875 172.902344 298.335938 C 172.1875 299.835938 174.496094 300.179688 175.515625 299.277344 C 175.644531 299.164062 175.746094 299.03125 175.820312 298.878906 C 176.398438 297.757812 176.96875 296.648438 177.566406 295.539062 C 184.535156 282.3125 192.429688 269.734375 201.8125 258.035156 C 206.957031 251.609375 212.460938 245.453125 218.273438 239.632812 C 220.382812 237.53125 222.574219 235.527344 224.738281 233.484375 C 225.382812 232.878906 226.015625 232.269531 226.648438 231.652344 C 226.695312 231.609375 226.734375 231.566406 226.777344 231.527344 C 228.789062 229.558594 230.832031 227.21875 231.214844 224.3125 C 232.011719 218.359375 227.03125 215.292969 222.269531 212.484375 C 222.089844 211.132812 221.949219 209.78125 221.847656 208.421875 C 226.128906 211.089844 230.261719 214.035156 234.179688 217.207031 C 237.996094 220.285156 242.167969 224.089844 244.207031 228.925781 C 245.5 232.015625 245.960938 235.523438 245.613281 239.585938 C 245.214844 240.800781 244.757812 242.003906 244.207031 243.1875 C 242.578125 246.664062 239.941406 249.261719 238.035156 252.496094 C 237.695312 253.058594 238.5625 253.289062 238.9375 253.085938 C 242.417969 251.1875 244.992188 247.171875 246.679688 243.636719 C 248.214844 244.585938 249.761719 245.566406 251.292969 246.59375 C 246.984375 250.328125 243.246094 254.914062 240.304688 259.320312 C 237.660156 263.269531 235.40625 267.53125 233.699219 271.964844 C 232.269531 275.71875 230.140625 280.925781 231.003906 284.984375 C 231.0625 285.238281 231.449219 285.3125 231.59375 285.082031 C 232.714844 283.164062 233.171875 280.882812 233.851562 278.78125 C 234.542969 276.664062 235.292969 274.578125 236.160156 272.523438 C 237.9375 268.277344 240.117188 264.242188 242.742188 260.449219 C 245.261719 256.800781 248.097656 253.394531 251.292969 250.3125 C 252.054688 249.578125 252.839844 248.882812 253.636719 248.203125 C 256.914062 250.523438 260.117188 253.089844 263.023438 256.046875 C 266.660156 259.730469 271.316406 265.644531 273.296875 273.183594 C 246.890625 286.507812 220.367188 295.6875 194.210938 300.574219 Z M 136.371094 197.433594 C 132.800781 192.660156 131.535156 186.34375 130.417969 180.769531 C 127.25 165.015625 123.976562 148.722656 123.648438 132.402344 C 123.4375 121.703125 124.566406 111.734375 127.007812 102.785156 C 128.375 97.753906 130.179688 93.011719 132.367188 88.636719 L 132.367188 88.632812 C 132.636719 88.097656 132.910156 87.578125 133.1875 87.0625 C 133.679688 87.800781 134.164062 88.476562 134.554688 89.054688 C 134.917969 89.59375 135.300781 90.125 135.703125 90.640625 C 137.171875 92.542969 138.894531 94.265625 140.898438 95.585938 C 147.269531 99.789062 154.945312 98.507812 161.914062 96.75 C 173.046875 93.941406 184.125 90.46875 194.789062 86.085938 C 193.792969 95.183594 194.632812 105.332031 200.597656 112.359375 C 204.464844 116.914062 209.347656 120.035156 211.445312 125.90625 C 213.460938 131.546875 213.4375 137.667969 213.355469 143.589844 C 213.332031 145.371094 215.988281 145.050781 216.539062 143.773438 C 218.148438 139.992188 219.738281 136.207031 221.351562 132.433594 C 222.503906 129.722656 223.835938 125.71875 227.042969 124.917969 C 230.472656 124.066406 233.527344 127.472656 234.976562 130.191406 C 236.613281 133.285156 237.25 136.957031 237.167969 140.425781 C 236.878906 151.769531 229.472656 159.976562 220.183594 165.050781 C 219.308594 165.539062 218.410156 165.988281 217.503906 166.410156 C 215.847656 167.191406 214.136719 167.875 212.425781 168.464844 C 210.976562 168.960938 211.863281 170.820312 213.234375 170.464844 C 214.511719 170.128906 215.792969 169.726562 217.042969 169.265625 C 216.082031 176.335938 216.4375 183.609375 218.109375 190.53125 C 218.230469 191.007812 218.488281 192.078125 219.269531 192.792969 C 218.90625 197.183594 218.847656 201.648438 219.09375 206.089844 C 219.179688 207.667969 219.308594 209.238281 219.480469 210.800781 C 219.550781 211.476562 219.621094 212.148438 219.714844 212.8125 C 220.496094 219.023438 221.882812 225.101562 223.863281 230.984375 C 223.019531 231.734375 222.164062 232.441406 221.425781 233.128906 C 218.625 235.71875 215.882812 238.382812 213.226562 241.121094 C 202.777344 251.8125 193.453125 263.59375 185.382812 276.175781 C 182.125 281.261719 179.007812 286.480469 176.171875 291.839844 C 175.589844 290.472656 174.957031 289.125 174.359375 287.796875 C 172.683594 284.132812 170.878906 280.53125 169.039062 276.949219 C 165.316406 269.671875 161.488281 262.40625 158.8125 254.660156 C 158.554688 253.917969 158.308594 253.175781 158.074219 252.425781 C 160.476562 251.847656 162.914062 250.773438 164.058594 249.039062 C 165.078125 247.492188 165.089844 245.417969 165.28125 243.648438 C 165.585938 240.804688 165.785156 237.949219 165.890625 235.09375 C 166.089844 229.554688 165.960938 224.003906 165.667969 218.460938 C 165.527344 215.839844 165.351562 213.214844 165.164062 210.59375 C 165.089844 209.710938 165.070312 208.773438 165.023438 207.835938 C 175.820312 205.1875 185.21875 198.378906 193.5 192.378906 C 194.082031 191.960938 194.210938 191.15625 193.792969 190.578125 C 193.371094 190 192.574219 189.871094 191.988281 190.289062 C 183.996094 196.078125 174.945312 202.636719 164.796875 205.234375 C 164.621094 205.277344 164.460938 205.320312 164.285156 205.363281 C 163.507812 205.550781 162.714844 205.710938 161.914062 205.839844 C 160.421875 206.09375 158.910156 206.238281 157.394531 206.277344 C 156.796875 206.296875 156.199219 206.296875 155.601562 206.28125 L 155.542969 206.28125 C 155.265625 206.269531 154.984375 206.261719 154.699219 206.238281 C 146.902344 205.832031 140.253906 202.644531 136.371094 197.433594 Z M 276.046875 273.585938 C 274.097656 264.988281 268.886719 258.316406 264.859375 254.234375 C 262.003906 251.332031 258.894531 248.800781 255.710938 246.507812 C 254.9375 245.953125 254.152344 245.417969 253.378906 244.886719 C 251.585938 243.671875 249.78125 242.519531 248.003906 241.414062 C 248.070312 240.921875 248.117188 240.433594 248.164062 239.953125 C 248.445312 236.886719 248.296875 234.089844 247.71875 231.507812 C 247.441406 230.261719 247.066406 229.070312 246.578125 227.921875 C 244.324219 222.558594 239.871094 218.476562 235.796875 215.195312 C 231.324219 211.578125 226.5625 208.238281 221.625 205.261719 C 221.433594 201.277344 221.496094 197.269531 221.808594 193.328125 C 222.5 193.097656 223.285156 192.527344 224.09375 191.367188 C 231.898438 179.964844 240.753906 167.035156 246.539062 152.742188 C 250.96875 141.816406 255.390625 125.253906 251.316406 108.414062 C 248.683594 97.558594 242.378906 87.753906 233.996094 81.441406 C 230.128906 68.378906 218.820312 56.867188 205.058594 52.039062 C 189.890625 46.726562 171.734375 48.246094 153.949219 56.316406 C 145.648438 60.085938 140.03125 64.214844 136.277344 69.3125 C 135.644531 70.171875 135.066406 71.066406 134.570312 71.972656 C 128.78125 74.902344 124.351562 80.222656 122.683594 86.300781 C 121.234375 91.585938 121.859375 97.492188 124.390625 102.589844 C 121.972656 111.652344 120.855469 121.695312 121.070312 132.453125 C 121.40625 149.007812 124.699219 165.414062 127.882812 181.28125 C 129.058594 187.121094 130.386719 193.738281 134.300781 198.980469 C 138.496094 204.601562 145.476562 208.109375 153.648438 208.765625 C 151.960938 212.339844 149.652344 215.601562 147.230469 219.03125 C 144.578125 222.789062 141.835938 226.671875 139.996094 231.019531 C 137.726562 236.371094 136.785156 242.542969 137.179688 249.375 C 134.652344 251.976562 131.171875 254.253906 126.558594 256.320312 C 124.710938 257.148438 122.777344 257.925781 120.90625 258.667969 C 116.898438 260.265625 112.761719 261.910156 109.023438 264.296875 C 103.457031 267.855469 99.648438 272.847656 98.570312 277.996094 C 98.480469 278.425781 98.617188 278.875 98.933594 279.183594 C 115.25 295.230469 125.519531 300.195312 133.414062 302.949219 C 142.03125 305.949219 151.042969 306.898438 159.5 306.898438 C 165.667969 306.898438 171.546875 306.394531 176.746094 305.804688 C 180.484375 305.382812 184.230469 304.871094 187.988281 304.269531 C 189.347656 304.054688 190.710938 303.828125 192.082031 303.582031 C 219.628906 298.730469 247.570312 289.152344 275.378906 275.023438 C 275.902344 274.753906 276.175781 274.164062 276.046875 273.585938 "/>
</g>
</g>
</svg>
