<?xml version="1.0" encoding="UTF-8"?>
<svg xmlns="http://www.w3.org/2000/svg" xmlns:xlink="http://www.w3.org/1999/xlink" width="375pt" height="374.999991pt" viewBox="0 0 375 374.999991" version="1.2">
<defs>
<clipPath id="clip1">
  <path d="M 124.453125 88.621094 L 250.449219 88.621094 L 250.449219 270.765625 L 124.453125 270.765625 Z M 124.453125 88.621094 "/>
</clipPath>
<clipPath id="clip2">
  <path d="M 124.453125 88.621094 L 250.449219 88.621094 L 250.449219 270.765625 L 124.453125 270.765625 Z M 124.453125 88.621094 "/>
</clipPath>
</defs>
<g id="surface1">
<path style=" stroke:none;fill-rule:nonzero;fill:rgb(97.24884%,56.079102%,56.079102%);fill-opacity:1;" d="M 93.691406 138.195312 C 93.691406 138.195312 73.777344 177.527344 85.585938 197.261719 C 97.394531 216.996094 109.691406 253.886719 142.183594 259.953125 C 174.675781 266.019531 229.386719 248.65625 246.433594 231.5 C 263.484375 214.347656 282.140625 163.089844 245.945312 120.898438 C 209.75 78.710938 158.8125 73.269531 93.691406 138.195312 Z M 93.691406 138.195312 "/>
<g clip-path="url(#clip1)" clip-rule="nonzero">
<path style=" stroke:none;fill-rule:nonzero;fill:rgb(5.879211%,5.488586%,4.708862%);fill-opacity:1;" d="M 250.664062 247.246094 C 249.28125 241.175781 245.574219 236.464844 242.710938 233.578125 C 240.679688 231.53125 238.46875 229.742188 236.203125 228.125 C 235.65625 227.734375 235.097656 227.355469 234.546875 226.980469 C 233.273438 226.125 231.988281 225.308594 230.726562 224.53125 C 230.773438 224.179688 230.804688 223.835938 230.839844 223.496094 C 231.039062 221.332031 230.933594 219.355469 230.523438 217.53125 C 230.328125 216.65625 230.058594 215.8125 229.710938 215.003906 C 228.109375 211.214844 224.941406 208.335938 222.046875 206.015625 C 218.867188 203.464844 215.480469 201.105469 211.96875 199.003906 C 211.832031 196.1875 211.878906 193.359375 212.101562 190.578125 C 212.59375 190.414062 213.148438 190.011719 213.726562 189.191406 C 219.273438 181.140625 225.570312 172.011719 229.683594 161.921875 C 232.832031 154.203125 235.976562 142.511719 233.082031 130.621094 C 231.210938 122.957031 226.726562 116.035156 220.765625 111.578125 C 218.015625 102.355469 209.976562 94.226562 200.191406 90.820312 C 189.40625 87.066406 176.496094 88.136719 163.851562 93.835938 C 157.949219 96.5 153.953125 99.414062 151.285156 103.015625 C 150.835938 103.621094 150.425781 104.25 150.070312 104.890625 C 145.953125 106.960938 142.804688 110.71875 141.617188 115.007812 C 140.589844 118.738281 141.03125 122.910156 142.832031 126.507812 C 141.113281 132.910156 140.320312 140 140.472656 147.59375 C 140.710938 159.285156 143.050781 170.867188 145.316406 182.070312 C 146.152344 186.195312 147.097656 190.867188 149.878906 194.566406 C 152.863281 198.539062 157.824219 201.011719 163.632812 201.476562 C 162.4375 204 160.796875 206.304688 159.074219 208.722656 C 157.1875 211.378906 155.238281 214.121094 153.929688 217.191406 C 152.316406 220.96875 151.644531 225.324219 151.925781 230.148438 C 150.128906 231.984375 147.65625 233.59375 144.375 235.050781 C 143.058594 235.640625 141.683594 236.1875 140.355469 236.710938 C 137.507812 237.835938 134.5625 239 131.90625 240.683594 C 127.949219 243.199219 125.238281 246.722656 124.476562 250.359375 C 124.410156 250.660156 124.507812 250.976562 124.730469 251.195312 C 136.332031 262.523438 143.632812 266.03125 149.25 267.976562 C 155.375 270.09375 161.785156 270.765625 167.796875 270.765625 C 172.179688 270.765625 176.363281 270.40625 180.058594 269.992188 C 182.71875 269.691406 185.382812 269.332031 188.054688 268.910156 C 189.019531 268.757812 189.988281 268.597656 190.960938 268.425781 C 210.550781 264.996094 230.417969 258.234375 250.1875 248.257812 C 250.5625 248.070312 250.757812 247.652344 250.664062 247.246094 "/>
</g>
<path style=" stroke:none;fill-rule:nonzero;fill:rgb(100%,100%,100%);fill-opacity:1;" d="M 151.121094 139.457031 C 153.363281 140.121094 155.015625 141.433594 155.777344 140.527344 C 156.945312 143.066406 159.074219 145.28125 159.558594 148.054688 C 160.210938 151.792969 157.609375 155.710938 156.140625 158.988281 C 154.949219 161.660156 152.480469 165.167969 153.308594 168.222656 C 154.054688 170.972656 156.613281 172.550781 158.910156 173.914062 C 159.917969 174.507812 161.371094 172.976562 160.132812 172.277344 C 158.632812 171.433594 156.980469 170.535156 156.011719 169.0625 C 154.949219 167.453125 155.179688 165.984375 155.894531 164.308594 C 157.324219 160.925781 158.902344 157.601562 160.304688 154.207031 C 161.34375 151.6875 161.972656 149.160156 160.875 146.542969 C 159.851562 144.113281 157.878906 142.222656 156.429688 140.042969 C 156.332031 139.898438 156.238281 139.753906 156.144531 139.601562 C 156.421875 137.804688 154.832031 135.867188 152.410156 135.152344 C 149.832031 134.386719 147.277344 135.292969 146.710938 137.179688 C 146.144531 139.070312 148.539062 138.6875 151.121094 139.457031 Z M 158.828125 178.617188 C 158.4375 178.476562 157.691406 178.941406 158.125 179.347656 C 163.824219 184.707031 174.511719 181.820312 177.960938 175.289062 C 178.542969 174.191406 176.617188 174.070312 176.085938 174.695312 C 174.164062 176.921875 171.988281 178.804688 169.105469 179.671875 C 165.53125 180.75 162.203125 179.84375 158.828125 178.617188 Z M 181.09375 139.804688 C 184.234375 140.734375 186.421875 142.707031 187.109375 140.410156 C 187.796875 138.113281 185.804688 135.496094 182.664062 134.5625 C 179.523438 133.628906 176.421875 134.738281 175.726562 137.035156 C 175.042969 139.332031 177.953125 138.871094 181.09375 139.804688 Z M 183.242188 144.828125 C 183.242188 143.890625 182.46875 143.121094 181.527344 143.121094 L 181.515625 143.121094 C 180.570312 143.121094 179.800781 143.890625 179.800781 144.828125 L 179.800781 152.476562 C 179.800781 153.417969 180.570312 154.1875 181.515625 154.1875 L 181.527344 154.1875 C 182.46875 154.1875 183.242188 153.417969 183.242188 152.476562 Z M 173.355469 185.183594 C 172.429688 185.648438 171.429688 186.058594 170.402344 186.234375 C 169.238281 186.441406 168.125 186.222656 166.957031 186.167969 C 166.597656 186.15625 165.933594 186.605469 166.375 186.980469 C 168.515625 188.816406 172.339844 188.0625 174.261719 186.285156 C 174.960938 185.632812 174.15625 184.777344 173.355469 185.183594 Z M 153.125 144.460938 C 153.125 143.523438 152.351562 142.753906 151.40625 142.753906 L 151.394531 142.753906 C 150.453125 142.753906 149.679688 143.523438 149.679688 144.460938 L 149.679688 152.113281 C 149.679688 153.050781 150.453125 153.820312 151.394531 153.820312 L 151.40625 153.820312 C 152.351562 153.820312 153.125 153.050781 153.125 152.113281 Z M 210.246094 157.058594 C 210.8125 158.632812 212.503906 158.441406 213.691406 157.765625 C 214.234375 157.457031 214.765625 156.835938 215.492188 157.25 C 216.535156 157.84375 215.890625 159.746094 215.546875 160.519531 C 214.90625 161.960938 213.714844 162.949219 212.394531 163.757812 C 211.417969 164.355469 212.617188 165.234375 213.394531 164.933594 C 215.578125 164.097656 217.21875 162.195312 217.816406 159.949219 C 218.292969 158.136719 217.808594 155.785156 215.609375 155.472656 C 214.667969 155.339844 213.933594 155.746094 213.160156 156.207031 C 212.625 156.527344 212.359375 157.058594 211.96875 156.28125 C 211.660156 155.679688 212.332031 154.285156 212.523438 153.761719 C 213.035156 152.398438 213.734375 151.097656 214.582031 149.921875 C 215.355469 148.839844 216.390625 147.976562 217.101562 146.859375 C 217.257812 146.597656 216.886719 146.378906 216.65625 146.472656 C 214.742188 147.269531 213.292969 149.097656 212.210938 150.808594 C 211.253906 152.332031 209.5625 155.160156 210.246094 157.058594 Z M 142.308594 147.558594 C 142.15625 140.003906 142.957031 132.964844 144.695312 126.648438 C 145.667969 123.097656 146.949219 119.746094 148.507812 116.65625 C 148.699219 116.277344 148.890625 115.910156 149.089844 115.546875 C 149.4375 116.066406 149.78125 116.546875 150.058594 116.953125 C 150.320312 117.332031 150.59375 117.707031 150.878906 118.074219 C 151.921875 119.414062 153.148438 120.632812 154.574219 121.566406 C 159.101562 124.535156 164.5625 123.625 169.515625 122.386719 C 177.429688 120.402344 185.308594 117.953125 192.890625 114.855469 C 192.183594 121.28125 192.78125 128.445312 197.019531 133.40625 C 199.769531 136.625 203.242188 138.824219 204.734375 142.972656 C 206.167969 146.957031 206.148438 151.277344 206.089844 155.460938 C 206.074219 156.71875 207.960938 156.492188 208.355469 155.585938 C 209.5 152.917969 210.628906 150.246094 211.777344 147.582031 C 212.59375 145.664062 213.542969 142.839844 215.824219 142.273438 C 218.261719 141.671875 220.433594 144.078125 221.464844 145.996094 C 222.628906 148.183594 223.078125 150.773438 223.019531 153.222656 C 222.816406 161.234375 217.550781 167.027344 210.945312 170.613281 C 210.324219 170.953125 209.683594 171.273438 209.039062 171.570312 C 207.863281 172.121094 206.648438 172.605469 205.429688 173.023438 C 204.402344 173.371094 205.03125 174.683594 206.003906 174.433594 C 206.914062 174.195312 207.824219 173.910156 208.714844 173.585938 C 208.027344 178.578125 208.28125 183.714844 209.472656 188.601562 C 209.558594 188.9375 209.738281 189.695312 210.296875 190.199219 C 210.035156 193.296875 209.996094 196.453125 210.171875 199.585938 C 210.230469 200.703125 210.324219 201.8125 210.449219 202.914062 C 210.496094 203.390625 210.546875 203.863281 210.613281 204.335938 C 211.167969 208.71875 212.15625 213.011719 213.5625 217.164062 C 212.960938 217.695312 212.351562 218.191406 211.828125 218.679688 C 209.839844 220.507812 207.890625 222.390625 206 224.320312 C 198.570312 231.871094 191.941406 240.191406 186.203125 249.070312 C 183.886719 252.664062 181.667969 256.347656 179.652344 260.132812 C 179.238281 259.167969 178.789062 258.214844 178.363281 257.277344 C 177.171875 254.691406 175.886719 252.148438 174.582031 249.617188 C 171.933594 244.480469 169.210938 239.351562 167.308594 233.882812 C 167.125 233.355469 166.949219 232.832031 166.785156 232.304688 C 168.492188 231.894531 170.226562 231.136719 171.039062 229.910156 C 171.765625 228.820312 171.773438 227.355469 171.910156 226.105469 C 172.125 224.097656 172.269531 222.082031 172.339844 220.066406 C 172.484375 216.15625 172.390625 212.234375 172.183594 208.324219 C 172.085938 206.472656 171.960938 204.617188 171.824219 202.765625 C 171.773438 202.144531 171.757812 201.484375 171.726562 200.820312 C 179.402344 198.949219 186.082031 194.144531 191.972656 189.90625 C 192.386719 189.613281 192.480469 189.042969 192.183594 188.632812 C 191.882812 188.226562 191.3125 188.136719 190.898438 188.429688 C 185.214844 192.519531 178.78125 197.148438 171.5625 198.980469 C 171.441406 199.015625 171.324219 199.042969 171.203125 199.074219 C 170.648438 199.207031 170.082031 199.320312 169.515625 199.414062 C 168.453125 199.589844 167.378906 199.691406 166.300781 199.71875 C 165.875 199.734375 165.453125 199.734375 165.027344 199.722656 L 164.984375 199.722656 C 164.789062 199.714844 164.585938 199.707031 164.386719 199.691406 C 158.839844 199.40625 154.113281 197.15625 151.351562 193.476562 C 148.816406 190.105469 147.914062 185.644531 147.117188 181.710938 C 144.867188 170.585938 142.539062 159.082031 142.308594 147.558594 Z M 214.152344 245.460938 C 214.308594 245.351562 214.074219 245.191406 213.941406 245.265625 C 207.9375 248.761719 202.507812 252.699219 197.585938 257.617188 C 195.300781 259.898438 193.144531 262.304688 191.128906 264.828125 C 190.605469 265.480469 190.089844 266.140625 189.582031 266.808594 C 186.332031 267.359375 183.09375 267.816406 179.859375 268.179688 C 167.105469 269.613281 157.847656 269.019531 149.851562 266.25 C 140.394531 262.984375 132.976562 256.660156 126.382812 250.253906 C 127.179688 247.261719 129.527344 244.355469 132.894531 242.222656 C 135.40625 240.628906 138.265625 239.5 141.03125 238.40625 C 142.378906 237.871094 143.773438 237.320312 145.128906 236.71875 C 148 235.4375 150.308594 234.039062 152.125 232.464844 C 152.183594 232.964844 152.253906 233.476562 152.335938 233.992188 C 153.203125 239.574219 155.089844 244.921875 156.921875 250.09375 C 156.921875 250.097656 156.921875 250.097656 156.921875 250.097656 C 157.910156 253.828125 159.191406 257.511719 160.511719 261.074219 C 160.640625 261.417969 161.394531 261.300781 161.3125 260.910156 C 160.59375 257.246094 159.773438 253.503906 158.695312 249.867188 C 158.707031 249.742188 158.695312 249.609375 158.648438 249.488281 C 158.34375 248.609375 158.027344 247.726562 157.71875 246.835938 C 156.238281 242.574219 154.84375 238.195312 154.148438 233.714844 C 153.976562 232.617188 153.851562 231.535156 153.78125 230.492188 C 153.78125 230.46875 153.78125 230.449219 153.78125 230.429688 L 153.78125 230.425781 C 153.457031 225.730469 154.074219 221.519531 155.613281 217.902344 C 156.847656 215.011719 158.742188 212.351562 160.570312 209.777344 C 162.417969 207.1875 164.316406 204.519531 165.613281 201.550781 L 165.660156 201.550781 C 167 201.550781 168.339844 201.445312 169.671875 201.230469 C 169.691406 201.429688 169.707031 201.621094 169.722656 201.816406 C 169.761719 202.332031 169.800781 202.851562 169.832031 203.371094 C 161.863281 210.085938 161.695312 222.5 164.316406 231.734375 C 164.328125 231.792969 164.34375 231.851562 164.363281 231.910156 C 164.433594 232.15625 164.507812 232.402344 164.585938 232.648438 C 166.273438 238.203125 168.867188 243.441406 171.488281 248.609375 C 172.957031 251.496094 174.445312 254.367188 175.804688 257.308594 C 176.660156 259.179688 177.359375 261.136719 178.144531 263.046875 C 177.863281 263.601562 177.59375 264.164062 177.328125 264.71875 C 176.816406 265.777344 178.460938 266.023438 179.1875 265.382812 C 179.277344 265.304688 179.351562 265.207031 179.402344 265.101562 C 179.8125 264.3125 180.21875 263.527344 180.644531 262.742188 C 185.597656 253.40625 191.214844 244.523438 197.882812 236.261719 C 201.539062 231.726562 205.453125 227.382812 209.589844 223.273438 C 211.085938 221.789062 212.644531 220.375 214.183594 218.929688 C 214.640625 218.503906 215.09375 218.074219 215.542969 217.636719 C 215.578125 217.605469 215.601562 217.578125 215.636719 217.546875 C 217.066406 216.160156 218.515625 214.507812 218.789062 212.453125 C 219.355469 208.25 215.816406 206.085938 212.429688 204.101562 C 212.300781 203.148438 212.203125 202.195312 212.128906 201.234375 C 215.171875 203.117188 218.113281 205.199219 220.898438 207.4375 C 223.609375 209.609375 226.578125 212.296875 228.027344 215.710938 C 228.945312 217.894531 229.277344 220.371094 229.027344 223.238281 C 228.746094 224.097656 228.417969 224.945312 228.027344 225.78125 C 226.867188 228.234375 224.996094 230.066406 223.640625 232.355469 C 223.398438 232.75 224.011719 232.910156 224.28125 232.769531 C 226.753906 231.429688 228.585938 228.59375 229.785156 226.097656 C 230.878906 226.769531 231.976562 227.460938 233.066406 228.1875 C 230 230.824219 227.34375 234.0625 225.25 237.171875 C 223.371094 239.960938 221.769531 242.96875 220.558594 246.101562 C 219.539062 248.75 218.023438 252.425781 218.640625 255.292969 C 218.679688 255.46875 218.957031 255.523438 219.058594 255.359375 C 219.855469 254.007812 220.179688 252.398438 220.664062 250.914062 C 221.15625 249.417969 221.691406 247.945312 222.304688 246.492188 C 223.570312 243.496094 225.121094 240.644531 226.984375 237.96875 C 228.777344 235.390625 230.792969 232.988281 233.066406 230.8125 C 233.609375 230.292969 234.164062 229.800781 234.734375 229.320312 C 237.0625 230.960938 239.339844 232.773438 241.40625 234.859375 C 243.992188 237.460938 247.304688 241.636719 248.710938 246.960938 C 229.933594 256.367188 211.078125 262.851562 192.476562 266.300781 C 194.5625 263.613281 196.796875 261.042969 199.152344 258.59375 C 203.714844 253.851562 208.796875 249.300781 214.152344 245.460938 "/>
<g clip-path="url(#clip2)" clip-rule="nonzero">
<path style=" stroke:none;fill-rule:nonzero;fill:rgb(5.879211%,5.488586%,4.708862%);fill-opacity:1;" d="M 153.125 144.460938 L 153.125 152.113281 C 153.125 153.050781 152.351562 153.820312 151.40625 153.820312 L 151.394531 153.820312 C 150.453125 153.820312 149.679688 153.050781 149.679688 152.113281 L 149.679688 144.460938 C 149.679688 143.523438 150.453125 142.753906 151.394531 142.753906 L 151.40625 142.753906 C 152.351562 142.753906 153.125 143.523438 153.125 144.460938 Z M 158.910156 173.914062 C 156.613281 172.550781 154.054688 170.972656 153.308594 168.222656 C 152.480469 165.167969 154.949219 161.660156 156.140625 158.988281 C 157.609375 155.710938 160.210938 151.792969 159.558594 148.054688 C 159.074219 145.28125 156.945312 143.066406 155.777344 140.527344 C 155.015625 141.433594 153.363281 140.121094 151.121094 139.457031 C 148.539062 138.6875 146.144531 139.070312 146.710938 137.179688 C 147.277344 135.292969 149.832031 134.386719 152.410156 135.152344 C 154.832031 135.867188 156.421875 137.804688 156.144531 139.601562 C 156.238281 139.753906 156.332031 139.898438 156.429688 140.042969 C 157.878906 142.222656 159.851562 144.113281 160.875 146.542969 C 161.972656 149.160156 161.34375 151.6875 160.304688 154.207031 C 158.902344 157.601562 157.324219 160.925781 155.894531 164.308594 C 155.179688 165.984375 154.949219 167.453125 156.011719 169.0625 C 156.980469 170.535156 158.632812 171.433594 160.132812 172.277344 C 161.371094 172.976562 159.917969 174.507812 158.910156 173.914062 Z M 174.261719 186.285156 C 172.339844 188.0625 168.515625 188.816406 166.375 186.980469 C 165.933594 186.605469 166.597656 186.15625 166.957031 186.167969 C 168.125 186.222656 169.238281 186.441406 170.402344 186.234375 C 171.429688 186.058594 172.429688 185.648438 173.355469 185.183594 C 174.15625 184.777344 174.960938 185.632812 174.261719 186.285156 Z M 158.125 179.347656 C 157.691406 178.941406 158.4375 178.476562 158.828125 178.617188 C 162.203125 179.84375 165.53125 180.75 169.105469 179.671875 C 171.988281 178.804688 174.164062 176.921875 176.085938 174.695312 C 176.617188 174.070312 178.542969 174.191406 177.960938 175.289062 C 174.511719 181.820312 163.824219 184.707031 158.125 179.347656 Z M 183.242188 144.828125 L 183.242188 152.476562 C 183.242188 153.417969 182.46875 154.1875 181.527344 154.1875 L 181.515625 154.1875 C 180.570312 154.1875 179.800781 153.417969 179.800781 152.476562 L 179.800781 144.828125 C 179.800781 143.890625 180.570312 143.121094 181.515625 143.121094 L 181.527344 143.121094 C 182.46875 143.121094 183.242188 143.890625 183.242188 144.828125 Z M 175.726562 137.035156 C 176.421875 134.738281 179.523438 133.628906 182.664062 134.5625 C 185.804688 135.496094 187.796875 138.113281 187.109375 140.410156 C 186.421875 142.707031 184.234375 140.734375 181.09375 139.804688 C 177.953125 138.871094 175.042969 139.332031 175.726562 137.035156 Z M 210.242188 157.058594 C 209.5625 155.160156 211.25 152.332031 212.210938 150.808594 C 213.292969 149.097656 214.738281 147.269531 216.65625 146.472656 C 216.882812 146.378906 217.257812 146.597656 217.101562 146.859375 C 216.390625 147.976562 215.355469 148.839844 214.582031 149.921875 C 213.730469 151.097656 213.03125 152.398438 212.523438 153.761719 C 212.332031 154.285156 211.65625 155.679688 211.964844 156.28125 C 212.359375 157.058594 212.625 156.527344 213.160156 156.207031 C 213.933594 155.746094 214.667969 155.339844 215.609375 155.472656 C 217.808594 155.785156 218.292969 158.136719 217.816406 159.949219 C 217.21875 162.195312 215.574219 164.097656 213.390625 164.933594 C 212.613281 165.234375 211.414062 164.355469 212.394531 163.757812 C 213.714844 162.949219 214.90625 161.960938 215.546875 160.519531 C 215.890625 159.746094 216.53125 157.84375 215.492188 157.25 C 214.765625 156.835938 214.234375 157.457031 213.691406 157.765625 C 212.5 158.441406 210.8125 158.632812 210.242188 157.058594 Z M 192.476562 266.300781 C 194.5625 263.613281 196.792969 261.046875 199.148438 258.59375 C 203.710938 253.851562 208.796875 249.300781 214.148438 245.460938 C 214.308594 245.351562 214.074219 245.191406 213.941406 245.265625 C 207.933594 248.761719 202.507812 252.699219 197.585938 257.617188 C 195.296875 259.898438 193.144531 262.304688 191.128906 264.828125 C 190.605469 265.480469 190.085938 266.140625 189.582031 266.808594 C 186.332031 267.359375 183.089844 267.816406 179.859375 268.179688 C 167.105469 269.613281 157.84375 269.019531 149.847656 266.25 C 140.394531 262.984375 132.976562 256.660156 126.378906 250.253906 C 127.179688 247.261719 129.523438 244.355469 132.890625 242.222656 C 135.402344 240.628906 138.265625 239.5 141.03125 238.40625 C 142.378906 237.871094 143.773438 237.320312 145.125 236.71875 C 148 235.4375 150.308594 234.039062 152.125 232.464844 C 152.183594 232.964844 152.253906 233.476562 152.332031 233.992188 C 153.203125 239.574219 155.089844 244.921875 156.917969 250.09375 C 156.917969 250.097656 156.917969 250.097656 156.921875 250.097656 C 157.910156 253.828125 159.191406 257.511719 160.511719 261.074219 C 160.636719 261.417969 161.390625 261.300781 161.3125 260.910156 C 160.59375 257.246094 159.773438 253.503906 158.691406 249.867188 C 158.707031 249.742188 158.691406 249.609375 158.648438 249.488281 C 158.339844 248.609375 158.027344 247.726562 157.71875 246.835938 C 156.238281 242.574219 154.839844 238.195312 154.144531 233.714844 C 153.976562 232.617188 153.851562 231.535156 153.78125 230.492188 C 153.78125 230.46875 153.777344 230.449219 153.777344 230.429688 L 153.777344 230.425781 C 153.457031 225.730469 154.070312 221.519531 155.613281 217.902344 C 156.847656 215.011719 158.742188 212.351562 160.566406 209.777344 C 162.417969 207.1875 164.316406 204.519531 165.609375 201.550781 L 165.65625 201.550781 C 167 201.550781 168.339844 201.445312 169.671875 201.230469 C 169.6875 201.429688 169.707031 201.621094 169.722656 201.816406 C 169.757812 202.332031 169.796875 202.851562 169.832031 203.371094 C 161.859375 210.085938 161.691406 222.5 164.316406 231.734375 C 164.328125 231.792969 164.34375 231.851562 164.359375 231.910156 C 164.433594 232.15625 164.507812 232.402344 164.582031 232.648438 C 166.273438 238.203125 168.863281 243.441406 171.488281 248.609375 C 172.953125 251.496094 174.445312 254.367188 175.800781 257.308594 C 176.660156 259.179688 177.359375 261.136719 178.144531 263.046875 C 177.859375 263.601562 177.59375 264.164062 177.328125 264.71875 C 176.816406 265.777344 178.457031 266.023438 179.183594 265.382812 C 179.277344 265.304688 179.347656 265.207031 179.402344 265.101562 C 179.8125 264.3125 180.21875 263.527344 180.644531 262.742188 C 185.597656 253.40625 191.210938 244.523438 197.882812 236.261719 C 201.539062 231.726562 205.453125 227.382812 209.585938 223.273438 C 211.085938 221.789062 212.644531 220.375 214.183594 218.929688 C 214.640625 218.503906 215.089844 218.074219 215.542969 217.636719 C 215.574219 217.605469 215.601562 217.578125 215.632812 217.546875 C 217.0625 216.160156 218.515625 214.507812 218.789062 212.453125 C 219.355469 208.25 215.8125 206.085938 212.425781 204.101562 C 212.300781 203.148438 212.199219 202.195312 212.125 201.234375 C 215.171875 203.117188 218.113281 205.199219 220.898438 207.4375 C 223.609375 209.609375 226.578125 212.296875 228.023438 215.710938 C 228.945312 217.894531 229.273438 220.371094 229.023438 223.238281 C 228.742188 224.097656 228.417969 224.945312 228.023438 225.78125 C 226.867188 228.234375 224.992188 230.066406 223.636719 232.355469 C 223.394531 232.75 224.011719 232.910156 224.28125 232.769531 C 226.753906 231.429688 228.585938 228.59375 229.785156 226.097656 C 230.875 226.769531 231.976562 227.460938 233.0625 228.1875 C 230 230.824219 227.34375 234.0625 225.25 237.171875 C 223.371094 239.960938 221.769531 242.96875 220.554688 246.101562 C 219.535156 248.75 218.023438 252.425781 218.640625 255.292969 C 218.679688 255.46875 218.953125 255.523438 219.058594 255.359375 C 219.855469 254.007812 220.179688 252.398438 220.664062 250.914062 C 221.152344 249.417969 221.6875 247.945312 222.304688 246.492188 C 223.570312 243.496094 225.117188 240.644531 226.984375 237.96875 C 228.777344 235.390625 230.792969 232.988281 233.0625 230.8125 C 233.605469 230.292969 234.164062 229.800781 234.730469 229.320312 C 237.0625 230.960938 239.335938 232.773438 241.40625 234.859375 C 243.992188 237.460938 247.300781 241.636719 248.707031 246.960938 C 229.933594 256.367188 211.074219 262.851562 192.476562 266.300781 Z M 151.351562 193.476562 C 148.8125 190.105469 147.910156 185.644531 147.117188 181.710938 C 144.867188 170.585938 142.539062 159.082031 142.304688 147.558594 C 142.152344 140.003906 142.957031 132.964844 144.695312 126.648438 C 145.664062 123.097656 146.949219 119.746094 148.503906 116.65625 C 148.695312 116.277344 148.890625 115.910156 149.089844 115.546875 C 149.4375 116.066406 149.78125 116.546875 150.058594 116.953125 C 150.320312 117.332031 150.589844 117.707031 150.875 118.074219 C 151.921875 119.414062 153.144531 120.632812 154.570312 121.566406 C 159.101562 124.535156 164.558594 123.625 169.515625 122.386719 C 177.429688 120.402344 185.304688 117.953125 192.886719 114.855469 C 192.179688 121.28125 192.777344 128.445312 197.019531 133.40625 C 199.765625 136.625 203.242188 138.824219 204.734375 142.972656 C 206.164062 146.957031 206.148438 151.277344 206.089844 155.460938 C 206.074219 156.71875 207.960938 156.492188 208.351562 155.585938 C 209.496094 152.917969 210.628906 150.246094 211.777344 147.582031 C 212.59375 145.664062 213.542969 142.839844 215.820312 142.273438 C 218.257812 141.671875 220.433594 144.078125 221.460938 145.996094 C 222.628906 148.183594 223.078125 150.773438 223.019531 153.222656 C 222.816406 161.234375 217.546875 167.027344 210.945312 170.613281 C 210.320312 170.953125 209.683594 171.273438 209.039062 171.570312 C 207.863281 172.121094 206.644531 172.605469 205.429688 173.023438 C 204.398438 173.371094 205.03125 174.683594 206.003906 174.433594 C 206.914062 174.195312 207.820312 173.910156 208.710938 173.585938 C 208.027344 178.578125 208.28125 183.714844 209.472656 188.601562 C 209.554688 188.9375 209.738281 189.695312 210.296875 190.199219 C 210.035156 193.296875 209.996094 196.453125 210.171875 199.585938 C 210.230469 200.703125 210.320312 201.8125 210.445312 202.914062 C 210.492188 203.390625 210.542969 203.863281 210.609375 204.335938 C 211.167969 208.71875 212.152344 213.011719 213.5625 217.164062 C 212.960938 217.695312 212.351562 218.191406 211.828125 218.679688 C 209.835938 220.507812 207.886719 222.390625 205.996094 224.320312 C 198.566406 231.871094 191.9375 240.191406 186.199219 249.070312 C 183.882812 252.664062 181.667969 256.347656 179.652344 260.132812 C 179.238281 259.167969 178.785156 258.214844 178.359375 257.277344 C 177.167969 254.691406 175.886719 252.148438 174.578125 249.617188 C 171.933594 244.480469 169.210938 239.351562 167.308594 233.882812 C 167.125 233.355469 166.949219 232.832031 166.785156 232.304688 C 168.492188 231.894531 170.226562 231.136719 171.039062 229.910156 C 171.765625 228.820312 171.773438 227.355469 171.90625 226.105469 C 172.125 224.097656 172.265625 222.082031 172.339844 220.066406 C 172.484375 216.15625 172.390625 212.234375 172.183594 208.324219 C 172.082031 206.472656 171.957031 204.617188 171.824219 202.765625 C 171.773438 202.144531 171.757812 201.484375 171.722656 200.820312 C 179.402344 198.949219 186.082031 194.144531 191.972656 189.90625 C 192.386719 189.613281 192.476562 189.042969 192.179688 188.632812 C 191.878906 188.226562 191.3125 188.136719 190.898438 188.429688 C 185.214844 192.519531 178.777344 197.148438 171.5625 198.980469 C 171.4375 199.015625 171.324219 199.042969 171.199219 199.074219 C 170.644531 199.207031 170.082031 199.320312 169.515625 199.414062 C 168.453125 199.589844 167.378906 199.691406 166.300781 199.71875 C 165.875 199.734375 165.449219 199.734375 165.023438 199.722656 L 164.984375 199.722656 C 164.785156 199.714844 164.585938 199.707031 164.382812 199.691406 C 158.839844 199.40625 154.113281 197.15625 151.351562 193.476562 Z M 250.664062 247.246094 C 249.28125 241.175781 245.574219 236.464844 242.710938 233.578125 C 240.679688 231.53125 238.46875 229.742188 236.203125 228.125 C 235.65625 227.734375 235.097656 227.355469 234.546875 226.980469 C 233.273438 226.125 231.988281 225.308594 230.726562 224.53125 C 230.773438 224.179688 230.804688 223.835938 230.839844 223.496094 C 231.039062 221.332031 230.933594 219.355469 230.523438 217.53125 C 230.328125 216.65625 230.058594 215.8125 229.710938 215.003906 C 228.109375 211.214844 224.941406 208.335938 222.046875 206.015625 C 218.867188 203.464844 215.480469 201.105469 211.96875 199.003906 C 211.832031 196.1875 211.878906 193.359375 212.101562 190.578125 C 212.59375 190.414062 213.148438 190.011719 213.726562 189.191406 C 219.273438 181.140625 225.570312 172.011719 229.683594 161.921875 C 232.832031 154.203125 235.976562 142.511719 233.082031 130.621094 C 231.210938 122.957031 226.726562 116.035156 220.765625 111.578125 C 218.015625 102.355469 209.976562 94.226562 200.191406 90.820312 C 189.40625 87.066406 176.496094 88.136719 163.851562 93.835938 C 157.949219 96.5 153.953125 99.414062 151.285156 103.015625 C 150.835938 103.621094 150.425781 104.25 150.070312 104.890625 C 145.953125 106.960938 142.804688 110.71875 141.617188 115.007812 C 140.589844 118.738281 141.03125 122.910156 142.832031 126.507812 C 141.113281 132.910156 140.320312 140 140.472656 147.59375 C 140.710938 159.285156 143.050781 170.867188 145.316406 182.070312 C 146.152344 186.195312 147.097656 190.867188 149.878906 194.566406 C 152.863281 198.539062 157.824219 201.011719 163.632812 201.476562 C 162.4375 204 160.796875 206.304688 159.074219 208.722656 C 157.1875 211.378906 155.238281 214.121094 153.929688 217.191406 C 152.316406 220.96875 151.644531 225.324219 151.925781 230.148438 C 150.128906 231.984375 147.65625 233.59375 144.375 235.050781 C 143.058594 235.640625 141.683594 236.1875 140.355469 236.710938 C 137.507812 237.835938 134.5625 239 131.90625 240.683594 C 127.949219 243.199219 125.238281 246.722656 124.476562 250.359375 C 124.410156 250.660156 124.507812 250.976562 124.730469 251.195312 C 136.332031 262.523438 143.632812 266.03125 149.25 267.976562 C 155.375 270.09375 161.785156 270.765625 167.796875 270.765625 C 172.179688 270.765625 176.363281 270.40625 180.058594 269.992188 C 182.71875 269.691406 185.382812 269.332031 188.054688 268.910156 C 189.019531 268.757812 189.988281 268.597656 190.960938 268.425781 C 210.550781 264.996094 230.417969 258.234375 250.1875 248.257812 C 250.5625 248.070312 250.757812 247.652344 250.664062 247.246094 "/>
</g>
</g>
</svg>
